<?xml version="1.0" standalone="no"?>
<!DOCTYPE svg PUBLIC "-//W3C//DTD SVG 20010904//EN"
 "http://www.w3.org/TR/2001/REC-SVG-20010904/DTD/svg10.dtd">
<svg version="1.0" xmlns="http://www.w3.org/2000/svg"
 width="512.000000pt" height="512.000000pt" viewBox="0 0 512.000000 512.000000"
 preserveAspectRatio="xMidYMid meet">
<metadata>
Created by potrace 1.16, written by Peter Selinger 2001-2019
</metadata>
<g transform="translate(0.000000,512.000000) scale(0.100000,-0.100000)"
fill="#000000" stroke="none">
<path d="M2018 5100 c-45 -24 -82 -72 -97 -125 -7 -25 -11 -168 -11 -390 0
-207 -4 -365 -10 -387 -21 -73 -70 -129 -175 -200 -203 -135 -318 -303 -361
-526 -11 -56 -14 -170 -14 -471 l0 -398 -187 -38 c-104 -20 -200 -43 -215 -51
-51 -26 -101 -78 -124 -129 l-24 -50 0 -468 c0 -520 -1 -510 66 -565 18 -15
55 -36 83 -47 28 -11 51 -22 51 -25 0 -3 -16 -12 -36 -19 -52 -19 -114 -78
-140 -136 -21 -44 -24 -65 -24 -178 0 -114 2 -129 20 -147 26 -26 70 -26 104
1 25 19 26 25 26 115 0 112 18 167 62 190 16 9 76 24 131 35 525 102 1647 320
1664 324 36 8 56 -33 58 -123 4 -143 68 -227 206 -268 68 -20 89 -51 89 -130
0 -59 -3 -67 -32 -99 -42 -45 123 -9 -1573 -339 -297 -58 -549 -106 -560 -108
-36 -5 -45 10 -45 78 0 80 -9 99 -56 114 -32 11 -39 10 -63 -7 -25 -19 -26
-25 -29 -125 -2 -95 -1 -107 20 -138 60 -89 119 -97 353 -50 81 17 154 30 162
30 10 0 13 -23 13 -103 0 -90 3 -106 20 -125 31 -33 92 -30 119 4 19 24 21 40
21 145 0 66 2 119 5 119 3 0 212 40 466 90 254 49 466 90 471 90 5 0 8 -90 7
-216 -1 -193 1 -217 16 -235 25 -26 88 -26 115 1 19 19 20 33 20 249 l0 229
23 5 c12 3 130 27 261 52 132 25 253 53 270 62 69 34 135 117 150 188 6 29 8
30 54 27 30 -2 71 4 111 18 l63 21 65 -22 c125 -41 232 -9 313 96 40 52 55 63
110 82 126 44 187 126 193 263 3 70 5 79 47 138 41 58 45 68 48 137 5 88 -7
128 -56 192 -34 44 -37 53 -40 127 -1 43 -9 93 -16 111 -17 41 -81 112 -107
120 -18 6 -17 9 14 44 72 79 72 82 72 591 0 504 2 485 -67 546 -19 17 -123 67
-244 117 -116 49 -215 97 -221 107 -9 14 -6 28 13 65 21 42 24 62 24 149 0
115 -15 160 -71 213 -65 62 -77 63 -539 63 -511 0 -470 -13 -470 151 0 103 -1
111 -25 134 -29 30 -74 32 -106 6 -23 -18 -24 -27 -29 -168 -4 -116 -9 -155
-23 -180 -20 -38 -82 -73 -127 -73 -38 0 -80 -39 -80 -73 0 -13 9 -36 21 -51
17 -22 29 -26 68 -26 79 0 139 27 203 91 l58 57 50 -16 c44 -14 49 -18 43 -36
-5 -12 -8 -55 -8 -96 0 -74 4 -88 50 -166 18 -30 18 -31 -7 -65 -37 -49 -51
-102 -46 -172 4 -59 12 -83 53 -153 18 -30 18 -31 -7 -65 -39 -52 -51 -103
-45 -184 l5 -71 -170 -34 c-188 -36 -208 -47 -208 -104 0 -36 36 -76 68 -76 8
0 373 70 811 154 438 85 813 158 834 162 l37 6 0 -316 c0 -349 -3 -372 -59
-400 -42 -22 -52 -20 -85 14 -70 74 -166 95 -274 60 l-69 -23 -68 23 c-46 15
-81 21 -111 17 l-44 -5 0 76 0 75 54 72 c62 83 72 106 55 137 -17 32 -40 47
-71 48 -25 0 -49 -19 -96 -80 l-20 -25 -49 53 c-35 37 -57 52 -75 52 -35 0
-67 -28 -74 -65 -5 -27 3 -43 54 -112 l60 -81 3 -136 3 -137 -30 -28 c-16 -15
-56 -35 -88 -45 -45 -14 -71 -30 -105 -65 l-46 -46 -265 -52 c-949 -186 -1658
-323 -1668 -323 -9 0 -12 76 -12 315 0 341 3 365 53 398 16 10 221 55 538 117
281 54 518 105 526 112 40 33 35 93 -11 123 -23 15 -38 14 -263 -30 -131 -25
-248 -49 -260 -52 l-23 -5 0 186 0 187 43 -25 c62 -37 121 -55 183 -58 44 -2
57 2 79 22 29 28 33 68 8 99 -13 15 -37 25 -82 32 -71 11 -103 25 -151 66
-101 85 -108 274 -16 468 49 106 120 184 234 259 150 99 217 182 246 306 13
52 16 136 16 417 0 408 -4 389 89 380 34 -4 81 -19 121 -39 112 -57 170 -159
170 -298 0 -76 20 -114 67 -123 62 -12 93 29 93 124 0 219 -133 408 -331 470
-83 26 -210 25 -261 -1z m1493 -1269 c21 -17 24 -27 24 -94 0 -124 20 -117
-349 -117 -341 0 -340 0 -371 60 -28 53 -11 120 37 154 19 14 67 16 329 16
287 0 308 -1 330 -19z m0 -390 c21 -17 24 -27 24 -94 0 -124 20 -117 -349
-117 -341 0 -340 0 -371 60 -28 53 -11 120 37 154 19 14 67 16 329 16 287 0
308 -1 330 -19z m4 -391 c10 -11 16 -22 14 -24 -5 -5 -671 -136 -692 -136 -36
0 -48 69 -22 120 31 60 30 60 371 60 299 0 312 -1 329 -20z m-62 -885 c20 -8
61 -15 92 -15 31 0 72 7 92 15 47 20 103 19 128 -3 12 -9 34 -36 50 -60 32
-49 88 -85 164 -108 68 -20 84 -46 87 -138 2 -80 18 -125 66 -192 39 -54 42
-101 10 -141 -52 -66 -73 -122 -76 -204 -3 -94 -21 -121 -99 -144 -71 -21
-113 -51 -158 -111 -58 -79 -86 -89 -170 -58 -56 20 -143 20 -191 0 -60 -26
-102 -21 -135 15 -92 102 -121 127 -168 143 -111 38 -125 55 -125 152 0 76
-19 130 -65 190 -43 57 -45 97 -10 145 54 74 75 130 75 205 0 92 17 115 106
144 66 22 98 48 180 144 26 30 38 36 71 36 22 0 57 -7 76 -15z m-587 -336 c-3
-16 -24 -55 -46 -86 -38 -53 -47 -79 -54 -148 -3 -28 -7 -30 -62 -42 -102 -21
-94 -31 -94 122 0 131 1 135 23 140 62 15 204 43 221 44 15 1 18 -4 12 -30z
m-408 -186 l-3 -138 -445 -87 c-245 -48 -457 -89 -472 -92 l-28 -5 0 138 0
138 373 73 c204 40 410 80 457 90 134 28 121 41 118 -117z m-1108 -212 l0
-139 -26 -6 c-19 -5 -68 12 -192 64 -91 39 -170 76 -174 83 -4 7 -8 22 -8 34
0 18 8 23 38 29 48 9 356 71 360 73 1 1 2 -62 2 -138z"/>
<path d="M3155 1835 c-50 -49 -21 -117 54 -130 l41 -7 0 -166 c1 -180 4 -193
54 -212 31 -11 79 7 90 35 3 9 6 90 6 180 l0 162 40 7 c52 8 80 36 80 80 0 25
-7 40 -26 55 -24 19 -40 21 -171 21 -139 0 -145 -1 -168 -25z"/>
<path d="M3685 1841 c-52 -23 -101 -80 -116 -133 -16 -61 -7 -244 14 -285 40
-77 145 -125 226 -103 52 14 109 63 132 115 14 31 19 65 19 151 0 103 -2 116
-28 165 -22 43 -38 59 -81 81 -62 33 -109 35 -166 9z m113 -253 l3 -107 -26
-7 c-46 -11 -55 8 -55 116 0 53 3 100 7 104 4 4 21 6 38 4 l30 -3 3 -107z"/>
<path d="M2662 2629 c-56 -28 -92 -88 -92 -153 0 -57 17 -93 64 -134 33 -29
51 -34 146 -44 14 -2 25 -9 25 -18 0 -12 -20 -16 -97 -20 -111 -6 -138 -21
-138 -77 0 -62 24 -73 153 -73 135 0 176 17 214 89 28 53 29 102 4 157 -26 58
-70 85 -147 93 -69 8 -79 13 -71 36 5 12 25 15 101 15 90 0 95 1 115 26 28 35
26 69 -4 99 -22 23 -31 25 -127 25 -85 0 -111 -4 -146 -21z"/>
<path d="M2192 2529 c-47 -24 -83 -66 -101 -118 -6 -20 -11 -100 -11 -191 0
-144 2 -160 21 -184 15 -19 30 -26 55 -26 50 0 74 29 74 90 l0 50 44 0 43 0 5
-50 c3 -28 13 -59 23 -70 23 -26 75 -26 106 -1 24 19 24 23 24 188 0 92 -3
180 -8 195 -11 40 -66 98 -112 119 -53 25 -111 24 -163 -2z"/>
<path d="M1626 2429 l-26 -20 0 -230 c0 -292 -16 -269 193 -269 148 0 154 1
175 23 29 31 28 72 -3 102 -22 23 -32 25 -120 25 -88 0 -95 1 -95 20 0 18 7
20 60 20 70 0 104 13 119 47 16 34 14 47 -10 77 -19 24 -26 26 -95 26 -72 0
-74 1 -74 25 0 25 0 25 98 25 90 0 100 2 120 23 29 31 28 72 -3 102 -23 24
-29 25 -168 25 -131 0 -147 -2 -171 -21z"/>
<path d="M2425 1289 c-44 -25 -45 -33 -45 -269 0 -290 -15 -270 196 -270 144
0 151 1 172 23 23 25 28 66 12 97 -14 27 -64 40 -151 40 -64 0 -79 3 -79 15 0
11 13 15 54 15 64 0 113 16 126 40 17 32 11 70 -15 95 -21 22 -33 25 -95 25
-63 0 -70 2 -70 20 0 19 7 20 94 20 79 0 97 3 120 21 34 27 37 86 5 115 -18
16 -40 19 -163 22 -91 1 -148 -2 -161 -9z"/>
<path d="M2017 1187 c-21 -7 -53 -27 -72 -46 -117 -114 -22 -301 153 -301 20
0 32 -5 32 -14 0 -10 -23 -15 -96 -18 -92 -4 -98 -6 -121 -33 -19 -22 -23 -35
-19 -59 11 -55 35 -66 152 -66 116 0 153 11 196 56 70 75 64 182 -15 251 -35
31 -62 40 -137 45 -23 2 -35 8 -35 18 0 12 20 16 98 20 89 4 101 7 118 29 33
41 21 93 -28 119 -28 15 -176 14 -226 -1z"/>
<path d="M1455 1089 c-42 -24 -45 -36 -45 -213 0 -144 3 -177 19 -211 62 -138
254 -154 340 -29 33 48 41 93 41 249 0 153 -8 181 -53 203 -32 15 -60 9 -87
-21 -18 -19 -20 -35 -20 -177 0 -165 -4 -180 -47 -180 -35 0 -43 35 -43 195 0
121 -3 146 -17 163 -22 26 -62 35 -88 21z"/>
</g>
</svg>
