<svg id="Logo" xmlns="http://www.w3.org/2000/svg" xmlns:xlink="http://www.w3.org/1999/xlink" width="230.613" height="29.13" viewBox="0 0 230.613 29.13">
  <defs>
    <linearGradient id="linear-gradient" y1="0.5" x2="1" y2="0.5" gradientUnits="objectBoundingBox">
      <stop offset="0.005" stop-color="#fc00ff"/>
      <stop offset="1" stop-color="#00dbde"/>
    </linearGradient>
  </defs>
  <g id="Group_1" data-name="Group 1" transform="translate(-621.143 -585.631)">
    <path id="Path_1" data-name="Path 1" d="M687,930.337l-.033.021c-.208.148-.394.287-.559.417l-.031.023-.127.1c-.016.014-.033.027-.049.039l-.1.084-.053.045-.082.072c-.016.016-.035.031-.051.047s-.049.045-.074.066a.473.473,0,0,1-.045.043c-.035.033-.068.066-.1.1-.016.014-.029.029-.043.043s-.035.035-.051.053l-.043.045-.043.047-.037.043-.037.041c-.01.014-.021.027-.031.039s-.023.027-.033.041l-.027.033-.029.041-.021.027c-.016.021-.029.041-.041.06l.076.029.008,0,.082.027.012.006c.029.008.058.018.088.027l.018.006.1.029.016.006.121.033.008,0c.09.023.187.049.3.072a.193.193,0,0,1,.031.008l.127.025c.021,0,.043.008.064.014s.068.012.1.019.057.01.086.016.062.01.094.016l.1.016.08.012c.043.008.086.014.129.019l.023,0c.189.025.392.049.612.068l.043,0a14.217,14.217,0,0,1-.575-2.035S687,930.335,687,930.337Z" transform="translate(-60.865 -327.19)" fill="none"/>
    <path id="Path_2" data-name="Path 2" d="M821.634,776.953c-4.485,1.526-14.871,5.4-20.66,10.3.074.137.154.277.242.425l.041.07a11.482,11.482,0,0,0,21.03-3.409q.026-.117.053-.246c.02-.107.041-.222.063-.349.006-.039.039-.24.082-.528a11.018,11.018,0,0,0-.69-5.9C821.743,777.195,821.689,777.072,821.634,776.953Z" transform="translate(-170.694 -181.601)" fill="none"/>
    <path id="Path_3" data-name="Path 3" d="M713.678,599.33l.136-.076c.516-.286,1.068-.577,1.649-.864l.185-.094c.08-.039.16-.078.242-.115.214-.1.431-.207.653-.308h0a11.474,11.474,0,0,1,19.575-5.543h0q.363-.044.719-.082c.09-.01.177-.019.265-.027l.023,0c.715-.066,1.4-.115,2.047-.144l.148-.006.09,0c.156-.006.306-.01.456-.012h0c-.072-.106-.144-.212-.219-.319a14.588,14.588,0,0,0-26.421,7.483c-.008.128-.014.256-.019.383l.387-.224Z" transform="translate(-87.39 0)" fill="url(#linear-gradient)"/>
    <path id="Path_4" data-name="Path 4" d="M748.06,776.215a14.36,14.36,0,0,0-.577-2.031c-.232-.014-.481-.023-.752-.027-.109,0-.216,0-.324,0h-.014c-.429,0-.848.012-1.281.035-.144.006-.287.014-.435.023h0l-.039,0-.055,0-.058.02-.01-.016-.174.012a.185.185,0,0,1-.033,0c-.053,0-.1.006-.152.012-.07,0-.125.008-.179.014l-.023,0c-.285.025-.571.051-.865.084l-.191.021c-.072.006-.135.014-.195.021s-.117.012-.172.019l-.183.023-.037,0c-.144.017-.283.035-.421.055l-.053.006-.154.021-.247.035-.023,0-.008,0-.023,0c-.043,0-.088.012-.131.018l-.308.047-.2.031-.154.025-.016,0-.136.021c-.135.02-.265.041-.4.066l-.443.076-.177.031-.2.039c-.2.037-.4.074-.606.115l-.14.027-.366.074-.766.162-.017,0-.02,0c-.228.049-.444.1-.663.148l-.047.012-.057.018h-.019c-.214.049-.429.1-.645.154l-.047.012h-.006c-.216.051-.433.105-.651.162s-.423.105-.634.16l-.207.057c-.191.049-.376.1-.563.15s-.4.109-.595.166l-.131.037q-.816.231-1.616.478-.357.108-.708.222c-.291.092-.577.185-.864.281-.214.072-.429.144-.639.218-.248.084-.493.17-.735.257s-.483.173-.723.263q-.523.193-1.029.392l-.372.146-.341.138c-.805.327-1.577.663-2.3,1q-.289.134-.567.269-.594.289-1.144.581l-.119.06c-.094.051-.185.1-.277.152-.481.263-.951.538-1.4.823l-.136.088v0l-.129.084-.006,0-.131.088-.136.094-.088.06v0a14.237,14.237,0,0,0,.575,2.035,14.546,14.546,0,0,0,28.206-4.341c.01-.207.014-.415.014-.624A14.634,14.634,0,0,0,748.06,776.215Zm-27.169,8.343a.148.148,0,0,0,.029,0,.448.448,0,0,1,.047.179Zm24.319-4c-.043.289-.076.489-.082.528-.021.127-.043.242-.062.349q-.026.129-.053.246a11.552,11.552,0,0,1-11.2,8.957,11.527,11.527,0,0,1-9.828-5.548l-.041-.07c-.088-.148-.168-.289-.242-.425,5.789-4.9,16.175-8.775,20.66-10.3.055.119.109.242.16.363A11.02,11.02,0,0,1,745.21,780.56Z" transform="translate(-93.42 -178.943)" fill="url(#linear-gradient)"/>
    <path id="Path_5" data-name="Path 5" d="M745.69,978.942l.076.181a.447.447,0,0,0-.047-.179A.143.143,0,0,1,745.69,978.942Z" transform="translate(-118.219 -373.327)" fill="#1a1a1a"/>
    <path id="Path_6" data-name="Path 6" d="M659.533,714.7c-.522-1.844-2.661-2.741-6.54-2.741-.158,0-.318,0-.483,0h-.029c-.15,0-.3.006-.456.012l-.09,0-.148.006c-.643.029-1.331.078-2.047.144l-.023,0c-.088.008-.175.018-.265.027q-.357.038-.719.082h0l-.235.031c-.2.025-.411.055-.62.082s-.4.057-.6.088l-.618.1c-.216.035-.433.072-.653.109-.2.035-.4.068-.6.105-.238.043-.478.09-.717.136-.187.037-.374.072-.563.111-.263.053-.53.111-.8.168-.17.037-.339.072-.511.111-.3.066-.595.136-.895.209l-.439.1q-.515.126-1.035.261l-.324.082c-.456.121-.916.246-1.376.376-.234.066-.468.134-.7.2l-.068.02c-.209.062-.417.123-.624.187-.031.008-.06.018-.09.027-.2.06-.4.121-.595.183l-.105.033c-.191.06-.382.121-.571.183l-.117.037-.548.181-.129.043c-.177.06-.353.119-.526.179l-.142.051c-.168.057-.333.117-.5.175-.051.019-.1.037-.156.057-.158.056-.316.113-.472.171l-.177.064c-.144.055-.289.107-.431.162l-.207.078c-.127.049-.253.1-.38.148-.082.031-.164.062-.244.1-.1.039-.2.08-.3.121l-.312.125-.14.059c-.71.292-1.4.589-2.055.893h0c-.222.1-.439.2-.653.308-.082.037-.162.076-.242.115l-.185.094c-.581.286-1.133.577-1.649.864l-.136.076-.08.047-.387.224h0a20.238,20.238,0,0,0-2.062,1.374l-.008.006c-.072.055-.14.109-.211.164l-.043.035-.175.144-.064.055c-.051.043-.1.086-.15.131-.025.021-.053.043-.076.066-.045.039-.088.08-.133.119-.027.025-.055.051-.082.078s-.078.074-.115.111-.058.055-.086.084l-.1.105-.084.088-.094.1c-.027.029-.055.06-.08.09l-.086.1-.076.094c-.025.033-.053.064-.078.1l-.07.094-.07.1c-.023.031-.045.062-.066.094s-.043.064-.062.1-.041.062-.06.094-.039.064-.057.1l-.053.094-.053.1c-.016.031-.031.062-.045.094l-.047.094c-.014.031-.025.062-.039.094s-.027.062-.039.1-.023.06-.033.092-.023.062-.033.1-.018.06-.027.09-.02.064-.027.1-.014.058-.019.088-.016.064-.021.1-.01.058-.014.088-.012.064-.016.1-.006.058-.008.086-.006.066-.008.1,0,.057,0,.086a.857.857,0,0,0,0,.1c0,.027,0,.057,0,.086s0,.064.006.1.006.058.01.088.006.064.012.1a.877.877,0,0,0,.018.1.738.738,0,0,0,.016.086c.012.06.027.121.045.181.37,1.308,1.612,2.16,3.69,2.534a16.5,16.5,0,0,0,2.879.222c.119,0,.24,0,.359,0h.035c.029,0,.06,0,.092,0l0,0a.457.457,0,0,1,.051,0,14.449,14.449,0,0,1-1.635-3.2l-.043,0c-.22-.019-.423-.043-.612-.068l-.023,0c-.043-.006-.086-.012-.129-.019l-.08-.012-.1-.016c-.031-.006-.062-.012-.094-.016s-.057-.012-.086-.016-.068-.014-.1-.019-.043-.01-.064-.014l-.127-.025a.2.2,0,0,0-.031-.008c-.109-.023-.207-.049-.3-.072l-.008,0-.121-.033-.016-.006-.1-.029-.018-.006c-.029-.01-.058-.019-.088-.027l-.012-.006-.082-.027s-.006,0-.008,0l-.076-.029c.012-.02.025-.039.041-.06l.021-.027.029-.041.027-.033c.01-.014.022-.027.033-.041s.021-.025.031-.039l.037-.041.037-.043.043-.047.043-.045c.016-.018.033-.035.051-.053s.027-.029.043-.043c.033-.033.066-.066.1-.1a.466.466,0,0,0,.045-.043c.025-.021.049-.045.074-.066s.035-.031.051-.047l.082-.072.053-.045.1-.084c.016-.012.033-.025.049-.039l.127-.1.031-.023c.166-.131.351-.269.559-.417l.033-.021s0,0,0,0v0l.088-.06.136-.094.131-.088.006,0,.129-.084v0l.136-.088c.448-.285.918-.559,1.4-.823.092-.053.183-.1.277-.152l.119-.06q.55-.292,1.144-.581.278-.135.567-.269c.727-.339,1.5-.674,2.3-1l.341-.138.372-.146q.506-.2,1.029-.392c.24-.09.48-.177.723-.263s.487-.174.735-.257c.211-.074.425-.146.639-.218.287-.1.573-.189.864-.281q.351-.114.708-.222.8-.246,1.616-.478l.131-.037c.2-.057.4-.111.594-.166s.372-.1.563-.15l.207-.057c.211-.055.419-.109.633-.16s.435-.111.651-.162h.006l.047-.012c.216-.055.431-.105.645-.154h.02l.057-.018.047-.012c.218-.051.435-.1.663-.148l.02,0,.018,0,.766-.162.366-.074.14-.027c.2-.041.405-.078.606-.115l.2-.039.177-.031.443-.076c.133-.025.263-.047.4-.066l.136-.021.016,0,.154-.025.2-.031.308-.047c.043-.006.088-.014.131-.018l.023,0,.008,0,.023,0,.247-.035.154-.021.053-.006c.138-.019.277-.037.421-.055l.037,0,.183-.023c.055-.008.109-.014.172-.019s.123-.016.195-.021l.191-.021c.294-.033.581-.058.865-.084l.023,0c.055-.006.109-.01.179-.014.051-.006.1-.01.152-.012a.186.186,0,0,0,.033,0l.174-.012c.023,0,.045,0,.068,0l.055,0,.039,0h0c.148-.01.29-.018.435-.023.433-.023.852-.035,1.281-.035h.014c.107,0,.214,0,.324,0,.271,0,.52.014.752.027a6.777,6.777,0,0,1,2.329.435,3.192,3.192,0,0,1-.419.507q-.091.091-.193.187l-.053.049c-.066.058-.133.119-.2.179-.006,0-.01.01-.016.014-.082.07-.17.14-.259.212a.285.285,0,0,1-.029.021c-.082.064-.166.127-.252.191-.105.078-.214.158-.327.236a14.639,14.639,0,0,1,.3,2.943c0,.209,0,.417-.014.624.618-.363,1.17-.719,1.661-1.068a.272.272,0,0,0,.029-.021c.146-.1.287-.209.423-.312.016-.014.033-.025.051-.039.131-.1.255-.2.376-.3.016-.014.031-.027.049-.041.119-.1.234-.2.343-.3.014-.012.025-.023.037-.035.111-.1.216-.2.318-.306a.223.223,0,0,1,.021-.022c.1-.107.2-.212.294-.318a3.894,3.894,0,0,0,1.115-2.518A2.862,2.862,0,0,0,659.533,714.7Z" transform="translate(0 -119.914)" fill="#fff"/>
  </g>
  <g id="Group_4" data-name="Group 4" transform="translate(-246.307 -1252.041)">
    <g id="Group_2" data-name="Group 2" transform="translate(294.821 1252.041)">
      <path id="Path_7" data-name="Path 7" d="M299.429,1271.568a8.431,8.431,0,0,1-3.335-3.14,9.178,9.178,0,0,1,0-9.119,8.432,8.432,0,0,1,3.335-3.14,10.043,10.043,0,0,1,4.789-1.128,10.28,10.28,0,0,1,4.2.825,8.075,8.075,0,0,1,3.1,2.376l-3.056,2.765a5.027,5.027,0,0,0-4-1.989,4.94,4.94,0,0,0-2.461.606,4.207,4.207,0,0,0-1.673,1.71,5.7,5.7,0,0,0,0,5.068,4.2,4.2,0,0,0,1.673,1.71,4.935,4.935,0,0,0,2.461.606,5.026,5.026,0,0,0,4-1.988l3.056,2.764a8.074,8.074,0,0,1-3.1,2.377,10.286,10.286,0,0,1-4.2.824A10.047,10.047,0,0,1,299.429,1271.568Z" transform="translate(-294.597 -1255.041)" fill="#fff"/>
      <path id="Path_8" data-name="Path 8" d="M469.489,1265.464h7.768a3.487,3.487,0,0,0,2.32-.669,2.368,2.368,0,0,0,.782-1.9,2.409,2.409,0,0,0-.782-1.917,3.448,3.448,0,0,0-2.32-.681h-7.768v-3.935h8.071a10.077,10.077,0,0,1,4.161.794,6.421,6.421,0,0,1,2.787,9.079,6.052,6.052,0,0,1-2.56,2.232l3.808,5.549H480.41l-3.2-4.691h-2.724v4.691h-4.994" transform="translate(-449.203 -1256.359)" fill="#fff"/>
      <path id="Path_9" data-name="Path 9" d="M643.2,1267.683v6.33h-4.994v-6.406l-6.734-11.249h5.271l4.187,7.011,4.187-7.011h4.842Z" transform="translate(-591.192 -1256.359)" fill="#fff"/>
      <path id="Path_10" data-name="Path 10" d="M806.65,1265.464h7.768a3.487,3.487,0,0,0,2.32-.669,2.368,2.368,0,0,0,.782-1.9,2.408,2.408,0,0,0-.782-1.917,3.448,3.448,0,0,0-2.32-.681H806.65v-3.935h8.071a10.076,10.076,0,0,1,4.161.794,6.226,6.226,0,0,1,0,11.45,10.066,10.066,0,0,1-4.161.795h-3.077v4.615H806.65Z" transform="translate(-744.365 -1256.359)" fill="#fff"/>
      <path id="Path_11" data-name="Path 11" d="M974.438,1260.319h-5.422v-3.96h15.813v3.96h-5.4v13.695h-4.993Z" transform="translate(-886.73 -1256.359)" fill="#fff"/>
      <path id="Path_12" data-name="Path 12" d="M1137.011,1271.556a8.68,8.68,0,0,1,0-15.375,10.838,10.838,0,0,1,9.676,0,8.68,8.68,0,0,1,0,15.375,10.839,10.839,0,0,1-9.676,0Zm7.166-3.444a4.358,4.358,0,0,0,1.649-1.71,5.6,5.6,0,0,0,0-5.068,4.366,4.366,0,0,0-1.649-1.71,4.772,4.772,0,0,0-4.656,0,4.362,4.362,0,0,0-1.649,1.71,5.6,5.6,0,0,0,0,5.068,4.354,4.354,0,0,0,1.649,1.71,4.774,4.774,0,0,0,4.656,0Z" transform="translate(-1031.13 -1255.041)" fill="#fff"/>
      <path id="Path_13" data-name="Path 13" d="M1315.733,1272.186a9.833,9.833,0,0,1-3.153-1.358l1.577-3.541a10.73,10.73,0,0,0,5.6,1.674q2.764,0,2.764-1.382a1.144,1.144,0,0,0-.788-1.079,14.532,14.532,0,0,0-2.534-.74,24.112,24.112,0,0,1-3.2-.885,5.379,5.379,0,0,1-2.207-1.515,4.094,4.094,0,0,1-.922-2.814,4.869,4.869,0,0,1,.849-2.8,5.684,5.684,0,0,1,2.534-1.977,10.436,10.436,0,0,1,4.135-.727,14.618,14.618,0,0,1,3.3.376,10.1,10.1,0,0,1,2.862,1.1l-1.479,3.564a9.884,9.884,0,0,0-4.7-1.309,3.947,3.947,0,0,0-2.086.424,1.273,1.273,0,0,0-.655,1.1,1.093,1.093,0,0,0,.776,1.018,14,14,0,0,0,2.5.7,23.383,23.383,0,0,1,3.213.885,5.547,5.547,0,0,1,2.207,1.5,4.017,4.017,0,0,1,.933,2.8,4.775,4.775,0,0,1-.849,2.765,5.787,5.787,0,0,1-2.546,1.976,10.3,10.3,0,0,1-4.122.74A15.67,15.67,0,0,1,1315.733,1272.186Z" transform="translate(-1188.295 -1255.041)" fill="#fff"/>
      <path id="Path_14" data-name="Path 14" d="M1484.414,1266.9l-2.269-5.649-3.733,9.332-1.387,3.43h-5.095l7.793-17.654h4.918l7.818,17.654h-5.2l-1.387-3.43Z" transform="translate(-1329.645 -1256.359)" fill="#fff"/>
      <path id="Path_15" data-name="Path 15" d="M1651.489,1260.319h-5.422v-3.96h15.813v3.96h-5.4v13.695h-4.994Z" transform="translate(-1479.781 -1256.359)" fill="#fff"/>
    </g>
    <g id="Group_3" data-name="Group 3" transform="translate(295.106 1276.357)">
      <path id="Path_16" data-name="Path 16" d="M563.738,1393.759h-1.366v-1h3.984v1H565v3.45h-1.258Z" transform="translate(-562.372 -1392.672)" fill="#fff"/>
      <path id="Path_17" data-name="Path 17" d="M632.743,1396.027h-.686v1.182H630.8v-4.448h2.033a2.54,2.54,0,0,1,1.049.2,1.618,1.618,0,0,1,.7,2.288,1.529,1.529,0,0,1-.645.563l.96,1.4H633.55Zm.6-2.1a.865.865,0,0,0-.584-.172h-.7v1.3h.7a.876.876,0,0,0,.584-.168.6.6,0,0,0,.2-.48A.605.605,0,0,0,633.341,1393.924Z" transform="translate(-625.866 -1392.672)" fill="#fff"/>
      <path id="Path_18" data-name="Path 18" d="M700.773,1396.758a2.05,2.05,0,0,1-.55-1.531v-2.465h1.258v2.427q0,1.067.845,1.067t.839-1.067v-2.427H704.4v2.465a2.05,2.05,0,0,1-.55,1.531,2.468,2.468,0,0,1-3.082,0Z" transform="translate(-690.147 -1392.672)" fill="#fff"/>
      <path id="Path_19" data-name="Path 19" d="M770.746,1396.829a2.573,2.573,0,0,1-.826-.355l.413-.928a2.675,2.675,0,0,0,.693.317,2.636,2.636,0,0,0,.775.121q.724,0,.724-.362a.3.3,0,0,0-.206-.282,3.774,3.774,0,0,0-.664-.194,6.361,6.361,0,0,1-.839-.232,1.413,1.413,0,0,1-.578-.4,1.073,1.073,0,0,1-.241-.737,1.275,1.275,0,0,1,.222-.734,1.488,1.488,0,0,1,.664-.518,2.736,2.736,0,0,1,1.083-.191,3.835,3.835,0,0,1,.864.1,2.649,2.649,0,0,1,.75.289l-.387.934a2.591,2.591,0,0,0-1.233-.343,1.038,1.038,0,0,0-.547.111.334.334,0,0,0-.172.289.286.286,0,0,0,.2.267,3.663,3.663,0,0,0,.655.185,6.1,6.1,0,0,1,.842.232,1.459,1.459,0,0,1,.579.394,1.054,1.054,0,0,1,.245.734,1.252,1.252,0,0,1-.222.724,1.517,1.517,0,0,1-.667.518,2.7,2.7,0,0,1-1.08.194A4.1,4.1,0,0,1,770.746,1396.829Z" transform="translate(-754.644 -1392.337)" fill="#fff"/>
      <path id="Path_20" data-name="Path 20" d="M837.261,1393.759h-1.366v-1h3.984v1h-1.36v3.45h-1.258Z" transform="translate(-816.201 -1392.672)" fill="#fff"/>
      <path id="Path_21" data-name="Path 21" d="M960.34,1392.761H961.6v4.448H960.34Z" transform="translate(-930.24 -1392.672)" fill="#fff"/>
      <path id="Path_22" data-name="Path 22" d="M1022.042,1392.761v4.448h-1.036l-1.964-2.37v2.37h-1.233v-4.448h1.036l1.964,2.37v-2.37Z" transform="translate(-985.077 -1392.672)" fill="#fff"/>
      <path id="Path_23" data-name="Path 23" d="M1144.775,1396.829a2.573,2.573,0,0,1-.826-.355l.413-.928a2.666,2.666,0,0,0,.692.317,2.634,2.634,0,0,0,.775.121q.724,0,.725-.362a.3.3,0,0,0-.207-.282,3.785,3.785,0,0,0-.664-.194,6.334,6.334,0,0,1-.839-.232,1.41,1.41,0,0,1-.578-.4,1.071,1.071,0,0,1-.242-.737,1.278,1.278,0,0,1,.222-.734,1.488,1.488,0,0,1,.664-.518,2.736,2.736,0,0,1,1.083-.191,3.833,3.833,0,0,1,.864.1,2.653,2.653,0,0,1,.75.289l-.388.934a2.592,2.592,0,0,0-1.233-.343,1.036,1.036,0,0,0-.546.111.334.334,0,0,0-.172.289.286.286,0,0,0,.2.267,3.672,3.672,0,0,0,.654.185,6.111,6.111,0,0,1,.842.232,1.456,1.456,0,0,1,.578.394,1.052,1.052,0,0,1,.245.734,1.253,1.253,0,0,1-.223.724,1.515,1.515,0,0,1-.667.518,2.7,2.7,0,0,1-1.08.194A4.1,4.1,0,0,1,1144.775,1396.829Z" transform="translate(-1100.454 -1392.337)" fill="#fff"/>
      <path id="Path_24" data-name="Path 24" d="M1215.306,1392.961a1.569,1.569,0,0,1,0,2.885,2.533,2.533,0,0,1-1.049.2h-.775v1.163h-1.258v-4.448h2.033A2.541,2.541,0,0,1,1215.306,1392.961Zm-.54,1.925a.6.6,0,0,0,.2-.48.606.606,0,0,0-.2-.482.866.866,0,0,0-.584-.172h-.7v1.3h.7A.876.876,0,0,0,1214.766,1394.886Z" transform="translate(-1163.828 -1392.672)" fill="#fff"/>
      <path id="Path_25" data-name="Path 25" d="M1281.349,1396.345h-1.881l-.349.864h-1.284l1.964-4.448h1.239l1.97,4.448H1281.7Zm-.369-.928-.572-1.423-.572,1.423Z" transform="translate(-1225.097 -1392.672)" fill="#fff"/>
      <path id="Path_26" data-name="Path 26" d="M1351.175,1396.667a2.2,2.2,0,0,1-.874-.823,2.4,2.4,0,0,1,0-2.389,2.209,2.209,0,0,1,.874-.823,2.632,2.632,0,0,1,1.255-.3,2.692,2.692,0,0,1,1.1.216,2.115,2.115,0,0,1,.813.623l-.8.724a1.319,1.319,0,0,0-1.049-.521,1.294,1.294,0,0,0-.645.159,1.1,1.1,0,0,0-.438.448,1.493,1.493,0,0,0,0,1.328,1.1,1.1,0,0,0,.438.448,1.294,1.294,0,0,0,.645.158,1.317,1.317,0,0,0,1.049-.521l.8.724a2.112,2.112,0,0,1-.813.623,2.688,2.688,0,0,1-1.1.216A2.629,2.629,0,0,1,1351.175,1396.667Z" transform="translate(-1291.531 -1392.337)" fill="#fff"/>
      <path id="Path_27" data-name="Path 27" d="M1424.191,1396.237v.972h-3.571v-4.448h3.489v.972h-2.243v.75h1.977v.941h-1.977v.813Z" transform="translate(-1356.77 -1392.672)" fill="#fff"/>
    </g>
  </g>
</svg>
