<?xml version="1.0" encoding="UTF-8" standalone="no"?>
<svg
   id="Logo"
   width="38.4925"
   height="29.083586"
   viewBox="0 0 38.492499 29.083587"
   version="1.1"
   sodipodi:docname="logo.svg"
   inkscape:version="1.1.2 (0a00cf5339, 2022-02-04)"
   xmlns:inkscape="http://www.inkscape.org/namespaces/inkscape"
   xmlns:sodipodi="http://sodipodi.sourceforge.net/DTD/sodipodi-0.dtd"
   xmlns:xlink="http://www.w3.org/1999/xlink"
   xmlns="http://www.w3.org/2000/svg"
   xmlns:svg="http://www.w3.org/2000/svg">
  <sodipodi:namedview
     id="namedview753"
     pagecolor="#ffffff"
     bordercolor="#666666"
     borderopacity="1.0"
     inkscape:pageshadow="2"
     inkscape:pageopacity="0.0"
     inkscape:pagecheckerboard="0"
     showgrid="false"
     fit-margin-top="0"
     fit-margin-left="0"
     fit-margin-right="0"
     fit-margin-bottom="0"
     inkscape:zoom="10.177223"
     inkscape:cx="81.505534"
     inkscape:cy="14.591407"
     inkscape:window-width="2560"
     inkscape:window-height="1376"
     inkscape:window-x="0"
     inkscape:window-y="27"
     inkscape:window-maximized="1"
     inkscape:current-layer="Logo" />
  <defs
     id="defs719">
    <linearGradient
       id="linear-gradient"
       y1="0.5"
       x2="1"
       y2="0.5"
       gradientUnits="objectBoundingBox">
      <stop
         offset="0.005"
         stop-color="#fc00ff"
         id="stop714" />
      <stop
         offset="1"
         stop-color="#00dbde"
         id="stop716" />
    </linearGradient>
    <linearGradient
       inkscape:collect="always"
       xlink:href="#linear-gradient"
       id="linearGradient835"
       gradientUnits="userSpaceOnUse"
       y1="818.64936"
       x2="535.58957"
       y2="818.64936"
       gradientTransform="scale(1.3814048,0.72390078)"
       x1="516.2911" />
    <linearGradient
       inkscape:collect="always"
       xlink:href="#linear-gradient"
       id="linearGradient837"
       gradientUnits="userSpaceOnUse"
       y1="952.46072"
       x2="615.93729"
       y2="952.46072"
       gradientTransform="scale(1.2150133,0.82303625)"
       x1="592.23796" />
  </defs>
  <g
     id="Group_1"
     data-name="Group 1"
     transform="translate(-621.15454,-585.63582)">
    <path
       id="Path_1"
       data-name="Path 1"
       d="m 687,930.337 -0.033,0.021 c -0.208,0.148 -0.394,0.287 -0.559,0.417 l -0.031,0.023 -0.127,0.1 c -0.016,0.014 -0.033,0.027 -0.049,0.039 l -0.1,0.084 -0.053,0.045 -0.082,0.072 c -0.016,0.016 -0.035,0.031 -0.051,0.047 -0.016,0.016 -0.049,0.045 -0.074,0.066 a 0.473,0.473 0 0 1 -0.045,0.043 c -0.035,0.033 -0.068,0.066 -0.1,0.1 -0.016,0.014 -0.029,0.029 -0.043,0.043 -0.014,0.014 -0.035,0.035 -0.051,0.053 l -0.043,0.045 -0.043,0.047 -0.037,0.043 -0.037,0.041 c -0.01,0.014 -0.021,0.027 -0.031,0.039 -0.01,0.012 -0.023,0.027 -0.033,0.041 l -0.027,0.033 -0.029,0.041 -0.021,0.027 c -0.016,0.021 -0.029,0.041 -0.041,0.06 l 0.076,0.029 h 0.008 l 0.082,0.027 0.012,0.006 c 0.029,0.008 0.058,0.018 0.088,0.027 l 0.018,0.006 0.1,0.029 0.016,0.006 0.121,0.033 h 0.008 c 0.09,0.023 0.187,0.049 0.3,0.072 a 0.193,0.193 0 0 1 0.031,0.008 l 0.127,0.025 c 0.021,0 0.043,0.008 0.064,0.014 0.021,0.006 0.068,0.012 0.1,0.019 0.032,0.007 0.057,0.01 0.086,0.016 0.029,0.006 0.062,0.01 0.094,0.016 l 0.1,0.016 0.08,0.012 c 0.043,0.008 0.086,0.014 0.129,0.019 h 0.023 c 0.189,0.025 0.392,0.049 0.612,0.068 h 0.043 a 14.217,14.217 0 0 1 -0.575,-2.035 c 0,0 -0.003,0.015 -0.003,0.017 z"
       transform="translate(-60.865,-327.19)"
       fill="none" />
    <path
       id="Path_2"
       data-name="Path 2"
       d="m 821.634,776.953 c -4.485,1.526 -14.871,5.4 -20.66,10.3 0.074,0.137 0.154,0.277 0.242,0.425 l 0.041,0.07 a 11.482,11.482 0 0 0 21.03,-3.409 q 0.026,-0.117 0.053,-0.246 c 0.02,-0.107 0.041,-0.222 0.063,-0.349 0.006,-0.039 0.039,-0.24 0.082,-0.528 a 11.018,11.018 0 0 0 -0.69,-5.9 c -0.052,-0.121 -0.106,-0.244 -0.161,-0.363 z"
       transform="translate(-170.694,-181.601)"
       fill="none" />
    <path
       id="Path_3"
       data-name="Path 3"
       d="m 713.678,599.33 0.136,-0.076 c 0.516,-0.286 1.068,-0.577 1.649,-0.864 l 0.185,-0.094 c 0.08,-0.039 0.16,-0.078 0.242,-0.115 0.214,-0.1 0.431,-0.207 0.653,-0.308 v 0 a 11.474,11.474 0 0 1 19.575,-5.543 v 0 q 0.363,-0.044 0.719,-0.082 c 0.09,-0.01 0.177,-0.019 0.265,-0.027 h 0.023 c 0.715,-0.066 1.4,-0.115 2.047,-0.144 l 0.148,-0.006 h 0.09 c 0.156,-0.006 0.306,-0.01 0.456,-0.012 v 0 c -0.072,-0.106 -0.144,-0.212 -0.219,-0.319 a 14.588,14.588 0 0 0 -26.421,7.483 c -0.008,0.128 -0.014,0.256 -0.019,0.383 l 0.387,-0.224 z"
       transform="translate(-87.39)"
       fill="url(#linear-gradient)"
       style="fill:url(#linearGradient835)" />
    <path
       id="Path_4"
       data-name="Path 4"
       d="m 748.06,776.215 a 14.36,14.36 0 0 0 -0.577,-2.031 c -0.232,-0.014 -0.481,-0.023 -0.752,-0.027 -0.109,0 -0.216,0 -0.324,0 h -0.014 c -0.429,0 -0.848,0.012 -1.281,0.035 -0.144,0.006 -0.287,0.014 -0.435,0.023 v 0 h -0.039 -0.055 l -0.058,0.02 -0.01,-0.016 -0.174,0.012 a 0.185,0.185 0 0 1 -0.033,0 c -0.053,0 -0.1,0.006 -0.152,0.012 -0.07,0 -0.125,0.008 -0.179,0.014 h -0.023 c -0.285,0.025 -0.571,0.051 -0.865,0.084 l -0.191,0.021 c -0.072,0.006 -0.135,0.014 -0.195,0.021 -0.06,0.007 -0.117,0.012 -0.172,0.019 l -0.183,0.023 h -0.037 c -0.144,0.017 -0.283,0.035 -0.421,0.055 l -0.053,0.006 -0.154,0.021 -0.247,0.035 h -0.023 -0.008 -0.023 c -0.043,0 -0.088,0.012 -0.131,0.018 l -0.308,0.047 -0.2,0.031 -0.154,0.025 h -0.016 l -0.136,0.021 c -0.135,0.02 -0.265,0.041 -0.4,0.066 l -0.443,0.076 -0.177,0.031 -0.2,0.039 c -0.2,0.037 -0.4,0.074 -0.606,0.115 l -0.14,0.027 -0.366,0.074 -0.766,0.162 h -0.017 -0.02 c -0.228,0.049 -0.444,0.1 -0.663,0.148 l -0.047,0.012 -0.057,0.018 h -0.019 c -0.214,0.049 -0.429,0.1 -0.645,0.154 l -0.047,0.012 h -0.006 c -0.216,0.051 -0.433,0.105 -0.651,0.162 -0.218,0.057 -0.423,0.105 -0.634,0.16 l -0.207,0.057 c -0.191,0.049 -0.376,0.1 -0.563,0.15 -0.187,0.05 -0.4,0.109 -0.595,0.166 l -0.131,0.037 q -0.816,0.231 -1.616,0.478 -0.357,0.108 -0.708,0.222 c -0.291,0.092 -0.577,0.185 -0.864,0.281 -0.214,0.072 -0.429,0.144 -0.639,0.218 -0.248,0.084 -0.493,0.17 -0.735,0.257 -0.242,0.087 -0.483,0.173 -0.723,0.263 q -0.523,0.193 -1.029,0.392 l -0.372,0.146 -0.341,0.138 c -0.805,0.327 -1.577,0.663 -2.3,1 q -0.289,0.134 -0.567,0.269 -0.594,0.289 -1.144,0.581 l -0.119,0.06 c -0.094,0.051 -0.185,0.1 -0.277,0.152 -0.481,0.263 -0.951,0.538 -1.4,0.823 l -0.136,0.088 v 0 l -0.129,0.084 h -0.006 l -0.131,0.088 -0.136,0.094 -0.088,0.06 v 0 a 14.237,14.237 0 0 0 0.575,2.035 14.546,14.546 0 0 0 28.206,-4.341 c 0.01,-0.207 0.014,-0.415 0.014,-0.624 a 14.634,14.634 0 0 0 -0.312,-2.899 z m -27.169,8.343 a 0.148,0.148 0 0 0 0.029,0 0.448,0.448 0 0 1 0.047,0.179 z m 24.319,-4 c -0.043,0.289 -0.076,0.489 -0.082,0.528 -0.021,0.127 -0.043,0.242 -0.062,0.349 q -0.026,0.129 -0.053,0.246 a 11.552,11.552 0 0 1 -11.2,8.957 11.527,11.527 0 0 1 -9.828,-5.548 l -0.041,-0.07 c -0.088,-0.148 -0.168,-0.289 -0.242,-0.425 5.789,-4.9 16.175,-8.775 20.66,-10.3 0.055,0.119 0.109,0.242 0.16,0.363 a 11.02,11.02 0 0 1 0.688,5.902 z"
       transform="translate(-93.42,-178.943)"
       fill="url(#linear-gradient)"
       style="fill:url(#linearGradient837)" />
    <path
       id="Path_5"
       data-name="Path 5"
       d="m 745.69,978.942 0.076,0.181 a 0.447,0.447 0 0 0 -0.047,-0.179 0.143,0.143 0 0 1 -0.029,-0.002 z"
       transform="translate(-118.219,-373.327)"
       fill="#1a1a1a" />
    <path
       id="Path_6"
       data-name="Path 6"
       d="m 659.533,714.7 c -0.522,-1.844 -2.661,-2.741 -6.54,-2.741 -0.158,0 -0.318,0 -0.483,0 h -0.029 c -0.15,0 -0.3,0.006 -0.456,0.012 h -0.09 l -0.148,0.006 c -0.643,0.029 -1.331,0.078 -2.047,0.144 h -0.023 c -0.088,0.008 -0.175,0.018 -0.265,0.027 q -0.357,0.038 -0.719,0.082 v 0 l -0.235,0.031 c -0.2,0.025 -0.411,0.055 -0.62,0.082 -0.209,0.027 -0.4,0.057 -0.6,0.088 l -0.618,0.1 c -0.216,0.035 -0.433,0.072 -0.653,0.109 -0.2,0.035 -0.4,0.068 -0.6,0.105 -0.238,0.043 -0.478,0.09 -0.717,0.136 -0.187,0.037 -0.374,0.072 -0.563,0.111 -0.263,0.053 -0.53,0.111 -0.8,0.168 -0.17,0.037 -0.339,0.072 -0.511,0.111 -0.3,0.066 -0.595,0.136 -0.895,0.209 l -0.439,0.1 q -0.515,0.126 -1.035,0.261 l -0.324,0.082 c -0.456,0.121 -0.916,0.246 -1.376,0.376 -0.234,0.066 -0.468,0.134 -0.7,0.2 l -0.068,0.02 c -0.209,0.062 -0.417,0.123 -0.624,0.187 -0.031,0.008 -0.06,0.018 -0.09,0.027 -0.2,0.06 -0.4,0.121 -0.595,0.183 l -0.105,0.033 c -0.191,0.06 -0.382,0.121 -0.571,0.183 l -0.117,0.037 -0.548,0.181 -0.129,0.043 c -0.177,0.06 -0.353,0.119 -0.526,0.179 l -0.142,0.051 c -0.168,0.057 -0.333,0.117 -0.5,0.175 -0.051,0.019 -0.1,0.037 -0.156,0.057 -0.158,0.056 -0.316,0.113 -0.472,0.171 l -0.177,0.064 c -0.144,0.055 -0.289,0.107 -0.431,0.162 l -0.207,0.078 c -0.127,0.049 -0.253,0.1 -0.38,0.148 -0.082,0.031 -0.164,0.062 -0.244,0.1 -0.1,0.039 -0.2,0.08 -0.3,0.121 l -0.312,0.125 -0.14,0.059 c -0.71,0.292 -1.4,0.589 -2.055,0.893 v 0 c -0.222,0.1 -0.439,0.2 -0.653,0.308 -0.082,0.037 -0.162,0.076 -0.242,0.115 l -0.185,0.094 c -0.581,0.286 -1.133,0.577 -1.649,0.864 l -0.136,0.076 -0.08,0.047 -0.387,0.224 v 0 a 20.238,20.238 0 0 0 -2.062,1.374 l -0.008,0.006 c -0.072,0.055 -0.14,0.109 -0.211,0.164 l -0.043,0.035 -0.175,0.144 -0.064,0.055 c -0.051,0.043 -0.1,0.086 -0.15,0.131 -0.025,0.021 -0.053,0.043 -0.076,0.066 -0.045,0.039 -0.088,0.08 -0.133,0.119 -0.027,0.025 -0.055,0.051 -0.082,0.078 -0.027,0.027 -0.078,0.074 -0.115,0.111 -0.037,0.037 -0.058,0.055 -0.086,0.084 l -0.1,0.105 -0.084,0.088 -0.094,0.1 c -0.027,0.029 -0.055,0.06 -0.08,0.09 l -0.086,0.1 -0.076,0.094 c -0.025,0.033 -0.053,0.064 -0.078,0.1 l -0.07,0.094 -0.07,0.1 c -0.023,0.031 -0.045,0.062 -0.066,0.094 -0.021,0.032 -0.043,0.064 -0.062,0.1 -0.019,0.036 -0.041,0.062 -0.06,0.094 -0.019,0.032 -0.039,0.064 -0.057,0.1 l -0.053,0.094 -0.053,0.1 c -0.016,0.031 -0.031,0.062 -0.045,0.094 l -0.047,0.094 c -0.014,0.031 -0.025,0.062 -0.039,0.094 -0.014,0.032 -0.027,0.062 -0.039,0.1 -0.012,0.038 -0.023,0.06 -0.033,0.092 -0.01,0.032 -0.023,0.062 -0.033,0.1 -0.01,0.038 -0.018,0.06 -0.027,0.09 -0.009,0.03 -0.02,0.064 -0.027,0.1 -0.007,0.036 -0.014,0.058 -0.019,0.088 -0.005,0.03 -0.016,0.064 -0.021,0.1 -0.005,0.036 -0.01,0.058 -0.014,0.088 -0.004,0.03 -0.012,0.064 -0.016,0.1 -0.004,0.036 -0.006,0.058 -0.008,0.086 -0.002,0.028 -0.006,0.066 -0.008,0.1 -0.002,0.034 0,0.057 0,0.086 a 0.857,0.857 0 0 0 0,0.1 c 0,0.027 0,0.057 0,0.086 0,0.029 0,0.064 0.006,0.1 0.006,0.036 0.006,0.058 0.01,0.088 0.004,0.03 0.006,0.064 0.012,0.1 a 0.877,0.877 0 0 0 0.018,0.1 0.738,0.738 0 0 0 0.016,0.086 c 0.012,0.06 0.027,0.121 0.045,0.181 0.37,1.308 1.612,2.16 3.69,2.534 a 16.5,16.5 0 0 0 2.879,0.222 c 0.119,0 0.24,0 0.359,0 h 0.035 c 0.029,0 0.06,0 0.092,0 v 0 a 0.457,0.457 0 0 1 0.051,0 14.449,14.449 0 0 1 -1.635,-3.2 h -0.043 c -0.22,-0.019 -0.423,-0.043 -0.612,-0.068 h -0.023 c -0.043,-0.006 -0.086,-0.012 -0.129,-0.019 l -0.08,-0.012 -0.1,-0.016 c -0.031,-0.006 -0.062,-0.012 -0.094,-0.016 -0.032,-0.004 -0.057,-0.012 -0.086,-0.016 -0.029,-0.004 -0.068,-0.014 -0.1,-0.019 -0.032,-0.005 -0.043,-0.01 -0.064,-0.014 l -0.127,-0.025 a 0.2,0.2 0 0 0 -0.031,-0.008 c -0.109,-0.023 -0.207,-0.049 -0.3,-0.072 h -0.008 l -0.121,-0.033 -0.016,-0.006 -0.1,-0.029 -0.018,-0.006 c -0.029,-0.01 -0.058,-0.019 -0.088,-0.027 l -0.012,-0.006 -0.082,-0.027 c 0,0 -0.006,0 -0.008,0 l -0.076,-0.029 c 0.012,-0.02 0.025,-0.039 0.041,-0.06 l 0.021,-0.027 0.029,-0.041 0.027,-0.033 c 0.01,-0.014 0.022,-0.027 0.033,-0.041 0.011,-0.014 0.021,-0.025 0.031,-0.039 l 0.037,-0.041 0.037,-0.043 0.043,-0.047 0.043,-0.045 c 0.016,-0.018 0.033,-0.035 0.051,-0.053 0.018,-0.018 0.027,-0.029 0.043,-0.043 0.033,-0.033 0.066,-0.066 0.1,-0.1 a 0.466,0.466 0 0 0 0.045,-0.043 c 0.025,-0.021 0.049,-0.045 0.074,-0.066 0.025,-0.021 0.035,-0.031 0.051,-0.047 l 0.082,-0.072 0.053,-0.045 0.1,-0.084 c 0.016,-0.012 0.033,-0.025 0.049,-0.039 l 0.127,-0.1 0.031,-0.023 c 0.166,-0.131 0.351,-0.269 0.559,-0.417 l 0.033,-0.021 c 0,0 0,0 0,0 v 0 l 0.088,-0.06 0.136,-0.094 0.131,-0.088 h 0.006 l 0.129,-0.084 v 0 l 0.136,-0.088 c 0.448,-0.285 0.918,-0.559 1.4,-0.823 0.092,-0.053 0.183,-0.1 0.277,-0.152 l 0.119,-0.06 q 0.55,-0.292 1.144,-0.581 0.278,-0.135 0.567,-0.269 c 0.727,-0.339 1.5,-0.674 2.3,-1 l 0.341,-0.138 0.372,-0.146 q 0.506,-0.2 1.029,-0.392 c 0.24,-0.09 0.48,-0.177 0.723,-0.263 0.243,-0.086 0.487,-0.174 0.735,-0.257 0.211,-0.074 0.425,-0.146 0.639,-0.218 0.287,-0.1 0.573,-0.189 0.864,-0.281 q 0.351,-0.114 0.708,-0.222 0.8,-0.246 1.616,-0.478 l 0.131,-0.037 c 0.2,-0.057 0.4,-0.111 0.594,-0.166 0.194,-0.055 0.372,-0.1 0.563,-0.15 l 0.207,-0.057 c 0.211,-0.055 0.419,-0.109 0.633,-0.16 0.214,-0.051 0.435,-0.111 0.651,-0.162 h 0.006 l 0.047,-0.012 c 0.216,-0.055 0.431,-0.105 0.645,-0.154 h 0.02 l 0.057,-0.018 0.047,-0.012 c 0.218,-0.051 0.435,-0.1 0.663,-0.148 h 0.02 0.018 l 0.766,-0.162 0.366,-0.074 0.14,-0.027 c 0.2,-0.041 0.405,-0.078 0.606,-0.115 l 0.2,-0.039 0.177,-0.031 0.443,-0.076 c 0.133,-0.025 0.263,-0.047 0.4,-0.066 l 0.136,-0.021 h 0.016 l 0.154,-0.025 0.2,-0.031 0.308,-0.047 c 0.043,-0.006 0.088,-0.014 0.131,-0.018 h 0.023 0.008 0.023 l 0.247,-0.035 0.154,-0.021 0.053,-0.006 c 0.138,-0.019 0.277,-0.037 0.421,-0.055 h 0.037 l 0.183,-0.023 c 0.055,-0.008 0.109,-0.014 0.172,-0.019 0.063,-0.005 0.123,-0.016 0.195,-0.021 l 0.191,-0.021 c 0.294,-0.033 0.581,-0.058 0.865,-0.084 h 0.023 c 0.055,-0.006 0.109,-0.01 0.179,-0.014 0.051,-0.006 0.1,-0.01 0.152,-0.012 a 0.186,0.186 0 0 0 0.033,0 l 0.174,-0.012 c 0.023,0 0.045,0 0.068,0 h 0.055 0.039 v 0 c 0.148,-0.01 0.29,-0.018 0.435,-0.023 0.433,-0.023 0.852,-0.035 1.281,-0.035 h 0.014 c 0.107,0 0.214,0 0.324,0 0.271,0 0.52,0.014 0.752,0.027 a 6.777,6.777 0 0 1 2.329,0.435 3.192,3.192 0 0 1 -0.419,0.507 q -0.091,0.091 -0.193,0.187 l -0.053,0.049 c -0.066,0.058 -0.133,0.119 -0.2,0.179 -0.006,0 -0.01,0.01 -0.016,0.014 -0.082,0.07 -0.17,0.14 -0.259,0.212 a 0.285,0.285 0 0 1 -0.029,0.021 c -0.082,0.064 -0.166,0.127 -0.252,0.191 -0.105,0.078 -0.214,0.158 -0.327,0.236 a 14.639,14.639 0 0 1 0.3,2.943 c 0,0.209 0,0.417 -0.014,0.624 0.618,-0.363 1.17,-0.719 1.661,-1.068 a 0.272,0.272 0 0 0 0.029,-0.021 c 0.146,-0.1 0.287,-0.209 0.423,-0.312 0.016,-0.014 0.033,-0.025 0.051,-0.039 0.131,-0.1 0.255,-0.2 0.376,-0.3 0.016,-0.014 0.031,-0.027 0.049,-0.041 0.119,-0.1 0.234,-0.2 0.343,-0.3 0.014,-0.012 0.025,-0.023 0.037,-0.035 0.111,-0.1 0.216,-0.2 0.318,-0.306 a 0.223,0.223 0 0 1 0.021,-0.022 c 0.1,-0.107 0.2,-0.212 0.294,-0.318 a 3.894,3.894 0 0 0 1.115,-2.518 2.862,2.862 0 0 0 -0.113,-0.877 z"
       transform="translate(0,-119.914)"
       fill="#ffffff" />
  </g>
  <g
     id="Group_4"
     data-name="Group 4"
     transform="translate(-246.31854,-1252.0458)">
    <g
       id="Group_2"
       data-name="Group 2"
       transform="translate(294.821,1252.041)">
      <path
         id="Path_7"
         data-name="Path 7"
         d="m 299.429,1271.568 a 8.431,8.431 0 0 1 -3.335,-3.14 9.178,9.178 0 0 1 0,-9.119 8.432,8.432 0 0 1 3.335,-3.14 10.043,10.043 0 0 1 4.789,-1.128 10.28,10.28 0 0 1 4.2,0.825 8.075,8.075 0 0 1 3.1,2.376 l -3.056,2.765 a 5.027,5.027 0 0 0 -4,-1.989 4.94,4.94 0 0 0 -2.461,0.606 4.207,4.207 0 0 0 -1.673,1.71 5.7,5.7 0 0 0 0,5.068 4.2,4.2 0 0 0 1.673,1.71 4.935,4.935 0 0 0 2.461,0.606 5.026,5.026 0 0 0 4,-1.988 l 3.056,2.764 a 8.074,8.074 0 0 1 -3.1,2.377 10.286,10.286 0 0 1 -4.2,0.824 10.047,10.047 0 0 1 -4.789,-1.127 z"
         transform="translate(-294.597,-1255.041)"
         fill="#ffffff" />
      <path
         id="Path_8"
         data-name="Path 8"
         d="m 469.489,1265.464 h 7.768 a 3.487,3.487 0 0 0 2.32,-0.669 2.368,2.368 0 0 0 0.782,-1.9 2.409,2.409 0 0 0 -0.782,-1.917 3.448,3.448 0 0 0 -2.32,-0.681 h -7.768 v -3.935 h 8.071 a 10.077,10.077 0 0 1 4.161,0.794 6.421,6.421 0 0 1 2.787,9.079 6.052,6.052 0 0 1 -2.56,2.232 l 3.808,5.549 h -5.346 l -3.2,-4.691 h -2.724 v 4.691 h -4.994"
         transform="translate(-449.203,-1256.359)"
         fill="#ffffff" />
      <path
         id="Path_9"
         data-name="Path 9"
         d="m 643.2,1267.683 v 6.33 h -4.994 v -6.406 l -6.734,-11.249 h 5.271 l 4.187,7.011 4.187,-7.011 h 4.842 z"
         transform="translate(-591.192,-1256.359)"
         fill="#ffffff" />
      <path
         id="Path_10"
         data-name="Path 10"
         d="m 806.65,1265.464 h 7.768 a 3.487,3.487 0 0 0 2.32,-0.669 2.368,2.368 0 0 0 0.782,-1.9 2.408,2.408 0 0 0 -0.782,-1.917 3.448,3.448 0 0 0 -2.32,-0.681 h -7.768 v -3.935 h 8.071 a 10.076,10.076 0 0 1 4.161,0.794 6.226,6.226 0 0 1 0,11.45 10.066,10.066 0 0 1 -4.161,0.795 h -3.077 v 4.615 h -4.994 z"
         transform="translate(-744.365,-1256.359)"
         fill="#ffffff" />
      <path
         id="Path_11"
         data-name="Path 11"
         d="m 974.438,1260.319 h -5.422 v -3.96 h 15.813 v 3.96 h -5.4 v 13.695 h -4.993 z"
         transform="translate(-886.73,-1256.359)"
         fill="#ffffff" />
      <path
         id="Path_12"
         data-name="Path 12"
         d="m 1137.011,1271.556 a 8.68,8.68 0 0 1 0,-15.375 10.838,10.838 0 0 1 9.676,0 8.68,8.68 0 0 1 0,15.375 10.839,10.839 0 0 1 -9.676,0 z m 7.166,-3.444 a 4.358,4.358 0 0 0 1.649,-1.71 5.6,5.6 0 0 0 0,-5.068 4.366,4.366 0 0 0 -1.649,-1.71 4.772,4.772 0 0 0 -4.656,0 4.362,4.362 0 0 0 -1.649,1.71 5.6,5.6 0 0 0 0,5.068 4.354,4.354 0 0 0 1.649,1.71 4.774,4.774 0 0 0 4.656,0 z"
         transform="translate(-1031.13,-1255.041)"
         fill="#ffffff" />
      <path
         id="Path_13"
         data-name="Path 13"
         d="m 1315.733,1272.186 a 9.833,9.833 0 0 1 -3.153,-1.358 l 1.577,-3.541 a 10.73,10.73 0 0 0 5.6,1.674 q 2.764,0 2.764,-1.382 a 1.144,1.144 0 0 0 -0.788,-1.079 14.532,14.532 0 0 0 -2.534,-0.74 24.112,24.112 0 0 1 -3.2,-0.885 5.379,5.379 0 0 1 -2.207,-1.515 4.094,4.094 0 0 1 -0.922,-2.814 4.869,4.869 0 0 1 0.849,-2.8 5.684,5.684 0 0 1 2.534,-1.977 10.436,10.436 0 0 1 4.135,-0.727 14.618,14.618 0 0 1 3.3,0.376 10.1,10.1 0 0 1 2.862,1.1 l -1.479,3.564 a 9.884,9.884 0 0 0 -4.7,-1.309 3.947,3.947 0 0 0 -2.086,0.424 1.273,1.273 0 0 0 -0.655,1.1 1.093,1.093 0 0 0 0.776,1.018 14,14 0 0 0 2.5,0.7 23.383,23.383 0 0 1 3.213,0.885 5.547,5.547 0 0 1 2.207,1.5 4.017,4.017 0 0 1 0.933,2.8 4.775,4.775 0 0 1 -0.849,2.765 5.787,5.787 0 0 1 -2.546,1.976 10.3,10.3 0 0 1 -4.122,0.74 15.67,15.67 0 0 1 -4.009,-0.495 z"
         transform="translate(-1188.295,-1255.041)"
         fill="#ffffff" />
      <path
         id="Path_14"
         data-name="Path 14"
         d="m 1484.414,1266.9 -2.269,-5.649 -3.733,9.332 -1.387,3.43 h -5.095 l 7.793,-17.654 h 4.918 l 7.818,17.654 h -5.2 l -1.387,-3.43 z"
         transform="translate(-1329.645,-1256.359)"
         fill="#ffffff" />
      <path
         id="Path_15"
         data-name="Path 15"
         d="m 1651.489,1260.319 h -5.422 v -3.96 h 15.813 v 3.96 h -5.4 v 13.695 h -4.994 z"
         transform="translate(-1479.781,-1256.359)"
         fill="#ffffff" />
    </g>
    <g
       id="Group_3"
       data-name="Group 3"
       transform="translate(295.106,1276.357)">
      <path
         id="Path_16"
         data-name="Path 16"
         d="m 563.738,1393.759 h -1.366 v -1 h 3.984 v 1 H 565 v 3.45 h -1.258 z"
         transform="translate(-562.372,-1392.672)"
         fill="#ffffff" />
      <path
         id="Path_17"
         data-name="Path 17"
         d="m 632.743,1396.027 h -0.686 v 1.182 H 630.8 v -4.448 h 2.033 a 2.54,2.54 0 0 1 1.049,0.2 1.618,1.618 0 0 1 0.7,2.288 1.529,1.529 0 0 1 -0.645,0.563 l 0.96,1.4 h -1.347 z m 0.6,-2.1 a 0.865,0.865 0 0 0 -0.584,-0.172 h -0.7 v 1.3 h 0.7 a 0.876,0.876 0 0 0 0.584,-0.168 0.6,0.6 0 0 0 0.2,-0.48 0.605,0.605 0 0 0 -0.202,-0.483 z"
         transform="translate(-625.866,-1392.672)"
         fill="#ffffff" />
      <path
         id="Path_18"
         data-name="Path 18"
         d="m 700.773,1396.758 a 2.05,2.05 0 0 1 -0.55,-1.531 v -2.465 h 1.258 v 2.427 q 0,1.067 0.845,1.067 0.845,0 0.839,-1.067 v -2.427 h 1.235 v 2.465 a 2.05,2.05 0 0 1 -0.55,1.531 2.468,2.468 0 0 1 -3.082,0 z"
         transform="translate(-690.147,-1392.672)"
         fill="#ffffff" />
      <path
         id="Path_19"
         data-name="Path 19"
         d="m 770.746,1396.829 a 2.573,2.573 0 0 1 -0.826,-0.355 l 0.413,-0.928 a 2.675,2.675 0 0 0 0.693,0.317 2.636,2.636 0 0 0 0.775,0.121 q 0.724,0 0.724,-0.362 a 0.3,0.3 0 0 0 -0.206,-0.282 3.774,3.774 0 0 0 -0.664,-0.194 6.361,6.361 0 0 1 -0.839,-0.232 1.413,1.413 0 0 1 -0.578,-0.4 1.073,1.073 0 0 1 -0.241,-0.737 1.275,1.275 0 0 1 0.222,-0.734 1.488,1.488 0 0 1 0.664,-0.518 2.736,2.736 0 0 1 1.083,-0.191 3.835,3.835 0 0 1 0.864,0.1 2.649,2.649 0 0 1 0.75,0.289 l -0.387,0.934 a 2.591,2.591 0 0 0 -1.233,-0.343 1.038,1.038 0 0 0 -0.547,0.111 0.334,0.334 0 0 0 -0.172,0.289 0.286,0.286 0 0 0 0.2,0.267 3.663,3.663 0 0 0 0.655,0.185 6.1,6.1 0 0 1 0.842,0.232 1.459,1.459 0 0 1 0.579,0.394 1.054,1.054 0 0 1 0.245,0.734 1.252,1.252 0 0 1 -0.222,0.724 1.517,1.517 0 0 1 -0.667,0.518 2.7,2.7 0 0 1 -1.08,0.194 4.1,4.1 0 0 1 -1.047,-0.133 z"
         transform="translate(-754.644,-1392.337)"
         fill="#ffffff" />
      <path
         id="Path_20"
         data-name="Path 20"
         d="m 837.261,1393.759 h -1.366 v -1 h 3.984 v 1 h -1.36 v 3.45 h -1.258 z"
         transform="translate(-816.201,-1392.672)"
         fill="#ffffff" />
      <path
         id="Path_21"
         data-name="Path 21"
         d="m 960.34,1392.761 h 1.26 v 4.448 h -1.26 z"
         transform="translate(-930.24,-1392.672)"
         fill="#ffffff" />
      <path
         id="Path_22"
         data-name="Path 22"
         d="m 1022.042,1392.761 v 4.448 h -1.036 l -1.964,-2.37 v 2.37 h -1.233 v -4.448 h 1.036 l 1.964,2.37 v -2.37 z"
         transform="translate(-985.077,-1392.672)"
         fill="#ffffff" />
      <path
         id="Path_23"
         data-name="Path 23"
         d="m 1144.775,1396.829 a 2.573,2.573 0 0 1 -0.826,-0.355 l 0.413,-0.928 a 2.666,2.666 0 0 0 0.692,0.317 2.634,2.634 0 0 0 0.775,0.121 q 0.724,0 0.725,-0.362 a 0.3,0.3 0 0 0 -0.207,-0.282 3.785,3.785 0 0 0 -0.664,-0.194 6.334,6.334 0 0 1 -0.839,-0.232 1.41,1.41 0 0 1 -0.578,-0.4 1.071,1.071 0 0 1 -0.242,-0.737 1.278,1.278 0 0 1 0.222,-0.734 1.488,1.488 0 0 1 0.664,-0.518 2.736,2.736 0 0 1 1.083,-0.191 3.833,3.833 0 0 1 0.864,0.1 2.653,2.653 0 0 1 0.75,0.289 l -0.388,0.934 a 2.592,2.592 0 0 0 -1.233,-0.343 1.036,1.036 0 0 0 -0.546,0.111 0.334,0.334 0 0 0 -0.172,0.289 0.286,0.286 0 0 0 0.2,0.267 3.672,3.672 0 0 0 0.654,0.185 6.111,6.111 0 0 1 0.842,0.232 1.456,1.456 0 0 1 0.578,0.394 1.052,1.052 0 0 1 0.245,0.734 1.253,1.253 0 0 1 -0.223,0.724 1.515,1.515 0 0 1 -0.667,0.518 2.7,2.7 0 0 1 -1.08,0.194 4.1,4.1 0 0 1 -1.042,-0.133 z"
         transform="translate(-1100.454,-1392.337)"
         fill="#ffffff" />
      <path
         id="Path_24"
         data-name="Path 24"
         d="m 1215.306,1392.961 a 1.569,1.569 0 0 1 0,2.885 2.533,2.533 0 0 1 -1.049,0.2 h -0.775 v 1.163 h -1.258 v -4.448 h 2.033 a 2.541,2.541 0 0 1 1.049,0.2 z m -0.54,1.925 a 0.6,0.6 0 0 0 0.2,-0.48 0.606,0.606 0 0 0 -0.2,-0.482 0.866,0.866 0 0 0 -0.584,-0.172 h -0.7 v 1.3 h 0.7 a 0.876,0.876 0 0 0 0.584,-0.166 z"
         transform="translate(-1163.828,-1392.672)"
         fill="#ffffff" />
      <path
         id="Path_25"
         data-name="Path 25"
         d="m 1281.349,1396.345 h -1.881 l -0.349,0.864 h -1.284 l 1.964,-4.448 h 1.239 l 1.97,4.448 h -1.308 z m -0.369,-0.928 -0.572,-1.423 -0.572,1.423 z"
         transform="translate(-1225.097,-1392.672)"
         fill="#ffffff" />
      <path
         id="Path_26"
         data-name="Path 26"
         d="m 1351.175,1396.667 a 2.2,2.2 0 0 1 -0.874,-0.823 2.4,2.4 0 0 1 0,-2.389 2.209,2.209 0 0 1 0.874,-0.823 2.632,2.632 0 0 1 1.255,-0.3 2.692,2.692 0 0 1 1.1,0.216 2.115,2.115 0 0 1 0.813,0.623 l -0.8,0.724 a 1.319,1.319 0 0 0 -1.049,-0.521 1.294,1.294 0 0 0 -0.645,0.159 1.1,1.1 0 0 0 -0.438,0.448 1.493,1.493 0 0 0 0,1.328 1.1,1.1 0 0 0 0.438,0.448 1.294,1.294 0 0 0 0.645,0.158 1.317,1.317 0 0 0 1.049,-0.521 l 0.8,0.724 a 2.112,2.112 0 0 1 -0.813,0.623 2.688,2.688 0 0 1 -1.1,0.216 2.629,2.629 0 0 1 -1.255,-0.29 z"
         transform="translate(-1291.531,-1392.337)"
         fill="#ffffff" />
      <path
         id="Path_27"
         data-name="Path 27"
         d="m 1424.191,1396.237 v 0.972 h -3.571 v -4.448 h 3.489 v 0.972 h -2.243 v 0.75 h 1.977 v 0.941 h -1.977 v 0.813 z"
         transform="translate(-1356.77,-1392.672)"
         fill="#ffffff" />
    </g>
  </g>
</svg>
