<?xml version="1.0" standalone="no"?>
<!DOCTYPE svg PUBLIC "-//W3C//DTD SVG 20010904//EN"
 "http://www.w3.org/TR/2001/REC-SVG-20010904/DTD/svg10.dtd">
<svg version="1.0" xmlns="http://www.w3.org/2000/svg"
 width="485.000000pt" height="498.000000pt" viewBox="0 0 485.000000 498.000000"
 preserveAspectRatio="xMidYMid meet">
<metadata>
Created by potrace 1.16, written by Peter Selinger 2001-2019
</metadata>
<g transform="translate(0.000000,498.000000) scale(0.100000,-0.100000)"
fill="#000000" stroke="none">
<path d="M0 2490 l0 -2490 2425 0 2425 0 0 2490 0 2490 -2425 0 -2425 0 0
-2490z m1950 1090 l0 -230 448 2 447 3 3 228 2 227 220 0 220 0 2 -227 3 -228
223 -3 222 -2 0 -95 c0 -52 -4 -95 -8 -95 -4 0 -28 20 -52 45 -24 25 -48 45
-52 45 -4 0 -8 -20 -8 -45 0 -48 16 -63 22 -20 3 26 3 26 51 -16 l47 -41 0
-104 0 -104 -60 0 c-33 0 -60 -4 -60 -10 0 -6 27 -10 60 -10 l60 0 0 -95 0
-95 -61 -121 c-33 -66 -58 -126 -56 -132 2 -7 28 35 58 93 l54 105 3 -984 c1
-541 0 -986 -3 -989 -3 -3 -50 14 -106 38 -95 41 -100 45 -94 69 5 24 4 24 -6
6 -7 -11 -13 -21 -15 -23 -1 -2 -46 11 -101 28 -83 27 -331 89 -355 90 -5 0
-8 7 -8 15 0 9 -11 26 -25 39 l-25 23 40 18 c22 10 40 22 40 27 0 4 -2 8 -4 8
-12 0 -151 -71 -167 -86 -16 -14 -30 -15 -119 -6 -55 5 -103 12 -107 16 -4 3
6 19 20 34 15 16 27 31 27 35 0 11 -88 8 -95 -2 -3 -5 9 -11 26 -13 l31 -3
-24 -28 -24 -27 -167 7 c-160 6 -167 7 -168 27 -1 18 -2 18 -6 3 -7 -25 -44
-37 -116 -37 -66 0 -305 -25 -374 -39 -46 -9 -53 -6 -53 20 0 25 -47 59 -81
59 -16 0 -38 9 -49 20 -24 24 -43 25 -64 4 -23 -23 -20 -51 9 -70 17 -11 25
-25 25 -45 0 -29 -2 -30 -101 -54 l-25 -6 4 59 c4 50 0 68 -19 102 -24 42 -80
80 -116 80 -10 -1 -1 -7 20 -14 72 -26 107 -76 107 -151 0 -26 -4 -54 -10 -64
-5 -11 -47 -31 -104 -50 -107 -36 -114 -35 -167 26 -25 29 -28 31 -14 9 9 -16
29 -39 44 -52 25 -22 25 -23 6 -30 -11 -4 -49 -20 -84 -36 -35 -15 -68 -28
-72 -28 -5 0 -9 117 -9 259 0 217 2 260 15 264 21 9 55 81 55 118 0 38 -27 97
-52 112 -25 16 -27 151 -1 179 15 17 15 18 0 18 -15 0 -17 16 -17 133 l0 134
58 0 c106 1 187 65 218 169 25 86 6 154 -64 226 -21 22 -56 44 -84 54 l-48 15
38 70 c20 38 40 69 43 69 4 0 62 -81 130 -181 115 -168 171 -245 153 -209 -4
8 -48 74 -97 145 -49 72 -110 160 -135 198 -24 37 -48 67 -51 67 -3 0 -25 -36
-49 -80 -41 -75 -45 -80 -76 -80 l-33 0 -5 135 c-3 74 -3 296 0 494 l5 361
221 2 221 3 3 228 2 227 220 0 220 0 0 -230z m-840 -1250 c0 -6 7 -6 19 2 16
9 29 6 77 -18 81 -40 119 -101 118 -188 0 -35 -7 -74 -16 -91 -45 -83 -164
-145 -232 -119 -13 5 -16 23 -16 90 0 46 2 84 5 84 13 0 55 -25 55 -32 0 -5
-5 -18 -10 -29 -15 -27 4 -24 23 4 12 18 18 20 28 10 7 -7 20 -13 28 -13 12 1
9 7 -9 21 l-25 21 38 70 c21 38 36 72 34 75 -3 2 -41 -14 -86 -36 l-81 -41 0
93 c0 52 3 97 7 100 10 11 43 8 43 -3z"/>
<path d="M1241 3011 c-41 -22 -81 -85 -81 -129 0 -39 21 -92 44 -111 26 -22
32 -3 7 23 -31 33 -39 102 -17 145 55 106 215 87 246 -30 15 -56 -3 -92 -112
-217 -54 -62 -98 -118 -98 -124 0 -7 32 -8 98 -4 160 11 212 17 212 28 0 6
-20 8 -52 5 -29 -4 -93 -9 -143 -13 -86 -6 -89 -6 -75 12 8 10 52 60 97 112
93 106 109 141 94 200 -28 103 -130 151 -220 103z"/>
<path d="M2372 2988 c-41 -62 -44 -68 -33 -68 6 0 22 19 37 41 l26 41 39 -63
c21 -35 38 -67 39 -71 0 -3 -21 -18 -47 -34 l-47 -27 50 -23 c27 -12 73 -33
102 -45 28 -12 52 -26 52 -30 0 -4 -9 -28 -20 -54 -11 -25 -16 -44 -11 -41 5
3 14 20 21 38 22 56 27 58 71 36 23 -11 43 -17 45 -15 3 2 -13 12 -35 20 -21
9 -41 20 -44 24 -3 4 15 53 40 108 56 126 65 147 55 141 -4 -2 -29 -56 -57
-120 -27 -64 -56 -116 -63 -116 -7 0 -34 9 -60 21 -130 58 -127 56 -83 82 38
23 46 22 59 -8 6 -14 16 -25 22 -25 6 0 4 13 -6 32 -16 31 -16 32 12 52 72 53
180 113 185 104 3 -5 9 -2 13 7 14 38 7 35 -123 -49 -55 -36 -104 -66 -108
-66 -5 0 -28 34 -51 75 -24 41 -45 75 -47 75 -2 0 -17 -19 -33 -42z"/>
<path d="M2853 2963 c-7 -2 -13 -9 -13 -14 0 -5 9 -4 19 3 15 9 23 9 35 -1 22
-18 20 -38 -3 -51 -15 -7 -23 -6 -35 6 -14 13 -16 13 -16 1 0 -8 -6 -17 -14
-20 -8 -3 -20 -16 -26 -29 -10 -20 -10 -21 3 -6 22 28 61 38 88 24 13 -7 22
-19 20 -27 -2 -8 -9 -32 -15 -54 -6 -22 -15 -43 -21 -47 -6 -5 -6 -8 2 -8 7 0
20 -16 29 -36 25 -52 75 -86 129 -88 l44 -1 -69 -70 c-39 -39 -70 -77 -70 -85
0 -23 220 201 241 245 21 44 24 65 10 65 -5 0 -12 -14 -16 -30 -15 -67 -91
-119 -155 -105 -38 8 -76 39 -96 77 -14 27 -14 32 0 53 9 14 16 39 16 57 0 25
7 38 30 53 29 20 39 35 21 35 -4 0 -20 -9 -34 -20 -14 -11 -32 -17 -41 -14
-18 7 -21 20 -6 29 15 9 12 31 -6 49 -16 16 -29 19 -51 9z"/>
<path d="M2674 2526 c7 -103 11 -113 47 -131 39 -21 53 -19 88 11 58 49 27
134 -49 134 -21 0 -42 -4 -45 -10 -14 -23 -25 -7 -25 35 0 27 -5 45 -11 45 -9
0 -10 -24 -5 -84z"/>
<path d="M1626 2383 c-12 -84 -19 -383 -8 -383 6 0 48 22 94 50 46 27 86 50
90 50 4 0 19 -21 35 -47 15 -25 29 -41 31 -35 2 6 -8 31 -22 54 l-25 44 46 27
c57 35 49 48 -11 16 -25 -13 -47 -21 -49 -19 -3 3 -39 64 -82 135 -43 72 -81
134 -85 138 -4 5 -10 -8 -14 -30z m94 -136 c39 -64 69 -121 66 -126 -9 -14
-147 -93 -153 -87 -3 2 -2 80 2 171 4 91 9 164 11 163 1 -2 35 -56 74 -121z"/>
<path d="M2953 2412 c-27 -4 -63 -47 -63 -74 0 -22 27 -78 38 -78 4 0 13 -4
20 -9 11 -6 9 -15 -7 -42 -40 -66 -20 -163 43 -204 94 -62 216 -16 245 93 19
67 -19 145 -84 176 l-35 17 17 31 c10 17 36 39 58 50 34 17 36 18 10 13 -35
-8 -62 -29 -81 -67 -10 -19 -22 -28 -39 -28 -21 0 -23 3 -18 33 9 56 -40 99
-104 89z m138 -164 l0 -23 10 23 c9 24 9 24 40 5 102 -59 97 -198 -8 -245 -52
-23 -97 -19 -137 13 -80 63 -71 196 17 234 50 22 77 19 78 -7z"/>
<path d="M2208 2304 c-57 -30 -77 -127 -37 -178 26 -33 69 -56 106 -56 40 0
92 35 107 72 l13 31 14 -29 c18 -37 74 -74 113 -74 41 0 91 32 112 71 40 78
-20 179 -107 179 -50 0 -95 -25 -112 -62 -14 -33 -23 -35 -32 -8 -3 10 -20 31
-36 45 -35 29 -97 33 -141 9z"/>
<path d="M2150 1960 c0 -71 68 -165 145 -201 48 -22 151 -25 199 -5 76 32 139
112 152 195 l7 41 -41 0 c-40 0 -42 -2 -52 -40 -13 -49 -54 -99 -97 -116 -96
-41 -208 21 -229 125 -6 28 -10 31 -45 31 -37 0 -39 -2 -39 -30z"/>
<path d="M3360 1703 c-36 -20 -94 -52 -130 -71 -35 -20 -59 -37 -53 -39 6 -2
63 23 125 56 63 34 117 61 120 61 3 0 -7 -39 -23 -86 -30 -92 -30 -110 1 -94
10 5 36 10 57 10 70 0 133 -63 133 -133 0 -132 -152 -191 -243 -94 -15 16 -31
27 -34 23 -12 -12 61 -76 99 -87 80 -21 164 27 188 108 33 108 -55 214 -166
201 -19 -2 -34 -2 -34 2 0 3 11 41 25 85 14 44 25 83 25 88 0 14 -25 5 -90
-30z"/>
<path d="M1695 1616 c-89 -39 -139 -117 -139 -216 0 -178 173 -283 333 -204
64 32 106 86 122 158 22 99 -31 207 -126 255 -46 24 -143 28 -190 7z m173 -21
c129 -54 169 -221 80 -330 -80 -97 -232 -101 -320 -8 -99 104 -66 266 67 336
39 21 125 21 173 2z"/>
<path d="M2990 1515 c0 -6 34 -44 75 -85 l75 -74 -22 -23 c-17 -18 -32 -23
-75 -23 -29 0 -53 -3 -53 -7 1 -5 10 -24 21 -43 15 -26 18 -29 13 -10 -4 14
-9 31 -11 38 -4 8 7 12 36 12 39 0 41 -1 41 -30 0 -20 9 -39 25 -54 l25 -23
-40 -18 c-34 -15 -53 -35 -34 -35 17 0 161 73 172 87 31 43 -5 123 -56 123
-21 0 -45 19 -109 87 -46 49 -83 83 -83 78z"/>
<path d="M2301 1398 c-27 -159 -27 -151 0 -143 13 4 36 14 51 21 34 17 38 17
38 0 0 -7 7 -19 15 -26 18 -15 21 1 5 31 -9 16 -7 21 15 29 34 13 32 21 -5 18
-29 -3 -33 1 -60 62 -16 35 -33 66 -38 68 -5 1 -15 -25 -21 -60z"/>
</g>
</svg>
