<?xml version="1.0" standalone="no"?>
<!DOCTYPE svg PUBLIC "-//W3C//DTD SVG 20010904//EN"
 "http://www.w3.org/TR/2001/REC-SVG-20010904/DTD/svg10.dtd">
<svg version="1.0" xmlns="http://www.w3.org/2000/svg"
 width="277.000000pt" height="285.000000pt" viewBox="0 0 277.000000 285.000000"
 preserveAspectRatio="xMidYMid meet">
<metadata>
Created by potrace 1.16, written by Peter Selinger 2001-2019
</metadata>
<g transform="translate(0.000000,285.000000) scale(0.100000,-0.100000)"
fill="#000000" stroke="none">
<path d="M1059 2686 c-57 -20 -96 -53 -118 -99 -18 -37 -21 -62 -21 -175 l0
-131 -79 -51 c-303 -194 -413 -573 -257 -883 l33 -65 -213 -213 c-118 -118
-214 -220 -214 -228 0 -18 167 -189 193 -197 16 -5 62 36 231 205 116 116 216
211 223 211 7 0 28 -9 47 -21 l36 -21 0 -363 c0 -322 2 -364 16 -369 9 -3 312
-6 674 -6 754 0 680 -11 680 99 l0 60 153 3 152 3 3 1055 c2 777 -1 1062 -9
1083 -17 41 -83 93 -134 106 -67 17 -1348 14 -1396 -3z m1181 -72 c0 -3 -6
-15 -13 -27 -9 -17 -13 -268 -17 -1122 l-5 -1100 -602 -3 -603 -2 0 316 c0
296 1 315 18 310 9 -3 51 -11 92 -17 133 -20 275 7 415 79 90 47 219 173 266
259 l34 63 93 0 93 0 -3 38 -3 37 -72 3 c-40 2 -73 7 -73 11 0 5 3 23 6 40 l7
31 109 0 109 0 -3 38 -3 37 -103 3 -103 3 3 37 3 37 78 3 77 3 0 39 0 40 -85
0 c-47 0 -85 4 -85 9 0 5 -3 22 -6 39 l-6 31 113 3 114 3 3 38 3 37 -135 0
-135 0 -31 58 c-69 131 -206 246 -360 304 -79 30 -94 32 -215 32 -71 1 -149
-3 -172 -7 l-43 -9 0 115 c0 102 2 117 22 142 43 55 36 54 651 55 312 0 567
-3 567 -6z m246 -38 l34 -34 0 -1011 0 -1011 -115 0 -115 0 0 1000 c0 1083 -2
1036 52 1074 12 9 42 16 66 16 37 0 50 -6 78 -34z m-1164 -337 c219 -46 412
-236 464 -457 25 -105 15 -245 -25 -347 -117 -300 -449 -460 -745 -361 -99 34
-153 65 -226 133 -203 187 -253 479 -124 723 80 152 215 258 388 305 63 17
197 19 268 4z"/>
<path d="M1520 2410 l0 -40 303 2 302 3 3 38 3 37 -305 0 -306 0 0 -40z"/>
<path d="M1840 2250 l0 -41 142 3 142 3 4 38 3 37 -145 0 -146 0 0 -40z"/>
<path d="M1560 720 l0 -280 280 0 280 0 0 280 0 280 -280 0 -280 0 0 -280z
m480 0 l0 -200 -195 0 -195 0 0 200 0 200 195 0 195 0 0 -200z"/>
<path d="M1863 768 l-62 -62 -26 24 -25 24 -30 -29 -30 -29 57 -58 57 -58 93
92 c51 51 93 98 93 104 0 13 -42 54 -56 54 -5 0 -37 -28 -71 -62z"/>
<path d="M1063 2155 c-298 -80 -464 -407 -354 -695 76 -201 267 -332 486 -333
242 -2 461 170 514 403 15 63 13 186 -3 245 -33 126 -121 247 -226 315 -113
73 -288 99 -417 65z m232 -79 c77 -21 142 -55 193 -102 l47 -43 -232 -1 -233
0 0 -39 c0 -26 5 -41 16 -45 9 -3 125 -6 260 -6 l243 0 16 -30 c8 -16 15 -31
15 -35 0 -3 -124 -5 -276 -5 l-275 0 3 -42 3 -43 283 -3 283 -2 -3 -33 -3 -32
-283 -3 -283 -2 3 -43 3 -42 272 -5 271 -5 -13 -32 -14 -33 -261 0 -261 0 3
-42 3 -43 228 -5 228 -5 -46 -38 c-25 -21 -75 -52 -113 -70 -62 -30 -75 -32
-172 -32 -87 0 -113 4 -152 22 l-48 22 0 391 0 390 28 12 c95 39 184 47 267
24z"/>
</g>
</svg>
